<svg xmlns="http://www.w3.org/2000/svg" xmlns:xlink="http://www.w3.org/1999/xlink" width="104" zoomAndPan="magnify" viewBox="0 0 78 30.000001" height="40" preserveAspectRatio="xMidYMid meet" version="1.2"><defs><clipPath id="d8161bc302"><path d="M 1.257812 0 L 76.742188 0 L 76.742188 29.03125 L 1.257812 29.03125 Z M 1.257812 0 "/></clipPath><clipPath id="ad51a32579"><path d="M 6.214844 7.058594 L 23.636719 7.058594 L 23.636719 18 L 6.214844 18 Z M 6.214844 7.058594 "/></clipPath><clipPath id="3e2631bd2d"><path d="M 6.214844 17 L 23.636719 17 L 23.636719 21 L 6.214844 21 Z M 6.214844 17 "/></clipPath><clipPath id="bea2c0fbf3"><path d="M 10 22 L 20 22 L 20 23.753906 L 10 23.753906 Z M 10 22 "/></clipPath></defs><g id="43853c4f81"><g clip-rule="nonzero" clip-path="url(#d8161bc302)"><path style=" stroke:none;fill-rule:nonzero;fill:#ffffff;fill-opacity:1;" d="M 1.257812 0 L 76.742188 0 L 76.742188 29.03125 L 1.257812 29.03125 Z M 1.257812 0 "/><path style=" stroke:none;fill-rule:nonzero;fill:#ffffff;fill-opacity:1;" d="M 1.257812 0 L 76.742188 0 L 76.742188 29.03125 L 1.257812 29.03125 Z M 1.257812 0 "/></g><g clip-rule="nonzero" clip-path="url(#ad51a32579)"><path style=" stroke:none;fill-rule:nonzero;fill:#000000;fill-opacity:1;" d="M 23.339844 17.996094 L 6.511719 17.996094 C 6.351562 17.996094 6.222656 17.867188 6.222656 17.710938 L 6.222656 8.210938 C 6.222656 7.578125 6.742188 7.058594 7.382812 7.058594 L 22.46875 7.058594 C 23.109375 7.058594 23.628906 7.578125 23.628906 8.210938 L 23.628906 17.710938 C 23.628906 17.867188 23.5 17.996094 23.339844 17.996094 Z M 6.804688 17.421875 L 23.046875 17.421875 L 23.046875 8.210938 C 23.046875 7.894531 22.789062 7.636719 22.46875 7.636719 L 7.382812 7.636719 C 7.0625 7.636719 6.804688 7.894531 6.804688 8.210938 Z M 6.804688 17.421875 "/></g><g clip-rule="nonzero" clip-path="url(#3e2631bd2d)"><path style=" stroke:none;fill-rule:nonzero;fill:#000000;fill-opacity:1;" d="M 22.46875 20.300781 L 7.382812 20.300781 C 6.742188 20.300781 6.222656 19.78125 6.222656 19.148438 L 6.222656 17.710938 C 6.222656 17.550781 6.351562 17.421875 6.511719 17.421875 L 23.339844 17.421875 C 23.5 17.421875 23.628906 17.550781 23.628906 17.710938 L 23.628906 19.148438 C 23.628906 19.78125 23.109375 20.300781 22.46875 20.300781 Z M 6.804688 17.996094 L 6.804688 19.148438 C 6.804688 19.464844 7.0625 19.722656 7.382812 19.722656 L 22.46875 19.722656 C 22.789062 19.722656 23.046875 19.464844 23.046875 19.148438 L 23.046875 17.996094 Z M 6.804688 17.996094 "/></g><path style=" stroke:none;fill-rule:nonzero;fill:#000000;fill-opacity:1;" d="M 15.796875 19.148438 L 14.054688 19.148438 C 13.894531 19.148438 13.765625 19.019531 13.765625 18.859375 C 13.765625 18.703125 13.894531 18.574219 14.054688 18.574219 L 15.796875 18.574219 C 15.957031 18.574219 16.085938 18.703125 16.085938 18.859375 C 16.085938 19.019531 15.957031 19.148438 15.796875 19.148438 Z M 15.796875 19.148438 "/><path style=" stroke:none;fill-rule:nonzero;fill:#000000;fill-opacity:1;" d="M 22.179688 17.996094 L 7.671875 17.996094 C 7.511719 17.996094 7.382812 17.867188 7.382812 17.710938 L 7.382812 8.5 C 7.382812 8.339844 7.511719 8.210938 7.671875 8.210938 L 22.179688 8.210938 C 22.339844 8.210938 22.46875 8.339844 22.46875 8.5 L 22.46875 17.710938 C 22.46875 17.867188 22.339844 17.996094 22.179688 17.996094 Z M 7.964844 17.421875 L 21.886719 17.421875 L 21.886719 8.785156 L 7.964844 8.785156 Z M 7.964844 17.421875 "/><g clip-rule="nonzero" clip-path="url(#bea2c0fbf3)"><path style=" stroke:none;fill-rule:nonzero;fill:#000000;fill-opacity:1;" d="M 18.695312 23.753906 L 11.15625 23.753906 C 10.675781 23.753906 10.285156 23.367188 10.285156 22.890625 C 10.285156 22.414062 10.675781 22.027344 11.15625 22.027344 L 18.695312 22.027344 C 19.175781 22.027344 19.566406 22.414062 19.566406 22.890625 C 19.566406 23.367188 19.175781 23.753906 18.695312 23.753906 Z M 11.15625 22.601562 C 10.996094 22.601562 10.863281 22.730469 10.863281 22.890625 C 10.863281 23.046875 10.996094 23.175781 11.15625 23.175781 L 18.695312 23.175781 C 18.855469 23.175781 18.988281 23.046875 18.988281 22.890625 C 18.988281 22.730469 18.855469 22.601562 18.695312 22.601562 Z M 11.15625 22.601562 "/></g><path style=" stroke:none;fill-rule:nonzero;fill:#000000;fill-opacity:1;" d="M 18.117188 22.601562 L 11.734375 22.601562 C 11.574219 22.601562 11.445312 22.472656 11.445312 22.3125 C 11.445312 22.15625 11.574219 22.027344 11.734375 22.027344 C 12.699219 22.027344 13.183594 21.347656 13.183594 20.011719 C 13.183594 19.851562 13.316406 19.722656 13.476562 19.722656 L 16.375 19.722656 C 16.535156 19.722656 16.667969 19.851562 16.667969 20.011719 C 16.667969 21.347656 17.15625 22.027344 18.117188 22.027344 C 18.277344 22.027344 18.40625 22.15625 18.40625 22.3125 C 18.40625 22.472656 18.277344 22.601562 18.117188 22.601562 Z M 13.148438 22.027344 L 16.703125 22.027344 C 16.347656 21.632812 16.136719 21.050781 16.09375 20.300781 L 13.757812 20.300781 C 13.714844 21.050781 13.503906 21.632812 13.148438 22.027344 Z M 13.148438 22.027344 "/><path style=" stroke:none;fill-rule:nonzero;fill:#000000;fill-opacity:1;" d="M 14.925781 17.996094 L 7.671875 17.996094 C 7.511719 17.996094 7.382812 17.867188 7.382812 17.710938 L 7.382812 8.5 C 7.382812 8.339844 7.511719 8.210938 7.671875 8.210938 L 14.925781 8.210938 C 15.085938 8.210938 15.214844 8.339844 15.214844 8.5 L 15.214844 17.710938 C 15.214844 17.867188 15.085938 17.996094 14.925781 17.996094 Z M 7.964844 17.421875 L 14.636719 17.421875 L 14.636719 8.785156 L 7.964844 8.785156 Z M 7.964844 17.421875 "/><path style=" stroke:none;fill-rule:nonzero;fill:#000000;fill-opacity:1;" d="M 10.863281 16.84375 C 10.820312 16.84375 10.777344 16.835938 10.734375 16.816406 C 10.589844 16.746094 10.535156 16.570312 10.605469 16.429688 L 11.476562 14.703125 C 11.546875 14.558594 11.722656 14.503906 11.863281 14.574219 C 12.007812 14.644531 12.066406 14.816406 11.996094 14.960938 L 11.125 16.6875 C 11.074219 16.789062 10.972656 16.84375 10.863281 16.84375 Z M 10.863281 16.84375 "/><path style=" stroke:none;fill-rule:nonzero;fill:#000000;fill-opacity:1;" d="M 8.832031 15.980469 C 8.757812 15.980469 8.683594 15.953125 8.628906 15.898438 C 8.515625 15.785156 8.515625 15.601562 8.628906 15.492188 L 9.5 14.628906 C 9.613281 14.515625 9.796875 14.515625 9.910156 14.628906 C 10.023438 14.738281 10.023438 14.921875 9.910156 15.035156 L 9.039062 15.898438 C 8.984375 15.953125 8.90625 15.980469 8.832031 15.980469 Z M 8.832031 15.980469 "/><path style=" stroke:none;fill-rule:nonzero;fill:#000000;fill-opacity:1;" d="M 9.703125 16.84375 C 9.628906 16.84375 9.554688 16.816406 9.5 16.761719 L 8.628906 15.898438 C 8.515625 15.785156 8.515625 15.601562 8.628906 15.492188 C 8.742188 15.378906 8.925781 15.378906 9.039062 15.492188 L 9.910156 16.355469 C 10.023438 16.46875 10.023438 16.648438 9.910156 16.761719 C 9.851562 16.816406 9.777344 16.84375 9.703125 16.84375 Z M 9.703125 16.84375 "/><path style=" stroke:none;fill-rule:nonzero;fill:#000000;fill-opacity:1;" d="M 13.765625 15.980469 C 13.691406 15.980469 13.617188 15.953125 13.558594 15.898438 L 12.691406 15.035156 C 12.578125 14.921875 12.578125 14.738281 12.691406 14.628906 C 12.804688 14.515625 12.988281 14.515625 13.101562 14.628906 L 13.96875 15.492188 C 14.085938 15.601562 14.085938 15.785156 13.96875 15.898438 C 13.914062 15.953125 13.839844 15.980469 13.765625 15.980469 Z M 13.765625 15.980469 "/><path style=" stroke:none;fill-rule:nonzero;fill:#000000;fill-opacity:1;" d="M 12.894531 16.84375 C 12.820312 16.84375 12.746094 16.816406 12.691406 16.761719 C 12.578125 16.648438 12.578125 16.46875 12.691406 16.355469 L 13.558594 15.492188 C 13.671875 15.378906 13.859375 15.378906 13.96875 15.492188 C 14.085938 15.601562 14.085938 15.785156 13.96875 15.898438 L 13.101562 16.761719 C 13.042969 16.816406 12.96875 16.84375 12.894531 16.84375 Z M 12.894531 16.84375 "/><path style=" stroke:none;fill-rule:nonzero;fill:#000000;fill-opacity:1;" d="M 11.445312 11.953125 C 11.285156 11.953125 11.15625 11.824219 11.15625 11.664062 L 11.15625 9.648438 C 11.15625 9.492188 11.285156 9.363281 11.445312 9.363281 C 11.605469 9.363281 11.734375 9.492188 11.734375 9.648438 L 11.734375 11.664062 C 11.734375 11.824219 11.605469 11.953125 11.445312 11.953125 Z M 11.445312 11.953125 "/><path style=" stroke:none;fill-rule:nonzero;fill:#000000;fill-opacity:1;" d="M 11.445312 13.679688 C 11.285156 13.679688 11.15625 13.550781 11.15625 13.390625 L 11.15625 12.816406 C 11.15625 12.65625 11.285156 12.527344 11.445312 12.527344 C 11.605469 12.527344 11.734375 12.65625 11.734375 12.816406 L 11.734375 13.390625 C 11.734375 13.550781 11.605469 13.679688 11.445312 13.679688 Z M 11.445312 13.679688 "/><path style=" stroke:none;fill-rule:nonzero;fill:#000000;fill-opacity:1;" d="M 18.988281 9.9375 L 16.085938 9.9375 C 15.925781 9.9375 15.796875 9.808594 15.796875 9.648438 C 15.796875 9.492188 15.925781 9.363281 16.085938 9.363281 L 18.988281 9.363281 C 19.148438 9.363281 19.277344 9.492188 19.277344 9.648438 C 19.277344 9.808594 19.148438 9.9375 18.988281 9.9375 Z M 18.988281 9.9375 "/><path style=" stroke:none;fill-rule:nonzero;fill:#000000;fill-opacity:1;" d="M 21.019531 9.9375 L 20.148438 9.9375 C 19.988281 9.9375 19.859375 9.808594 19.859375 9.648438 C 19.859375 9.492188 19.988281 9.363281 20.148438 9.363281 L 21.019531 9.363281 C 21.179688 9.363281 21.308594 9.492188 21.308594 9.648438 C 21.308594 9.808594 21.179688 9.9375 21.019531 9.9375 Z M 21.019531 9.9375 "/><path style=" stroke:none;fill-rule:nonzero;fill:#000000;fill-opacity:1;" d="M 21.019531 11.089844 L 18.117188 11.089844 C 17.957031 11.089844 17.828125 10.960938 17.828125 10.800781 C 17.828125 10.640625 17.957031 10.511719 18.117188 10.511719 L 21.019531 10.511719 C 21.179688 10.511719 21.308594 10.640625 21.308594 10.800781 C 21.308594 10.960938 21.179688 11.089844 21.019531 11.089844 Z M 21.019531 11.089844 "/><path style=" stroke:none;fill-rule:nonzero;fill:#000000;fill-opacity:1;" d="M 16.957031 11.089844 L 16.085938 11.089844 C 15.925781 11.089844 15.796875 10.960938 15.796875 10.800781 C 15.796875 10.640625 15.925781 10.511719 16.085938 10.511719 L 16.957031 10.511719 C 17.117188 10.511719 17.246094 10.640625 17.246094 10.800781 C 17.246094 10.960938 17.117188 11.089844 16.957031 11.089844 Z M 16.957031 11.089844 "/><path style=" stroke:none;fill-rule:nonzero;fill:#000000;fill-opacity:1;" d="M 18.988281 12.242188 L 16.085938 12.242188 C 15.925781 12.242188 15.796875 12.113281 15.796875 11.953125 C 15.796875 11.792969 15.925781 11.664062 16.085938 11.664062 L 18.988281 11.664062 C 19.148438 11.664062 19.277344 11.792969 19.277344 11.953125 C 19.277344 12.113281 19.148438 12.242188 18.988281 12.242188 Z M 18.988281 12.242188 "/><path style=" stroke:none;fill-rule:nonzero;fill:#000000;fill-opacity:1;" d="M 21.019531 12.242188 L 20.148438 12.242188 C 19.988281 12.242188 19.859375 12.113281 19.859375 11.953125 C 19.859375 11.792969 19.988281 11.664062 20.148438 11.664062 L 21.019531 11.664062 C 21.179688 11.664062 21.308594 11.792969 21.308594 11.953125 C 21.308594 12.113281 21.179688 12.242188 21.019531 12.242188 Z M 21.019531 12.242188 "/><path style=" stroke:none;fill-rule:nonzero;fill:#000000;fill-opacity:1;" d="M 21.019531 13.390625 L 18.117188 13.390625 C 17.957031 13.390625 17.828125 13.261719 17.828125 13.105469 C 17.828125 12.945312 17.957031 12.816406 18.117188 12.816406 L 21.019531 12.816406 C 21.179688 12.816406 21.308594 12.945312 21.308594 13.105469 C 21.308594 13.261719 21.179688 13.390625 21.019531 13.390625 Z M 21.019531 13.390625 "/><path style=" stroke:none;fill-rule:nonzero;fill:#000000;fill-opacity:1;" d="M 16.957031 13.390625 L 16.085938 13.390625 C 15.925781 13.390625 15.796875 13.261719 15.796875 13.105469 C 15.796875 12.945312 15.925781 12.816406 16.085938 12.816406 L 16.957031 12.816406 C 17.117188 12.816406 17.246094 12.945312 17.246094 13.105469 C 17.246094 13.261719 17.117188 13.390625 16.957031 13.390625 Z M 16.957031 13.390625 "/><path style=" stroke:none;fill-rule:nonzero;fill:#000000;fill-opacity:1;" d="M 21.019531 16.84375 L 18.117188 16.84375 C 17.957031 16.84375 17.828125 16.714844 17.828125 16.558594 C 17.828125 16.398438 17.957031 16.269531 18.117188 16.269531 L 21.019531 16.269531 C 21.179688 16.269531 21.308594 16.398438 21.308594 16.558594 C 21.308594 16.714844 21.179688 16.84375 21.019531 16.84375 Z M 21.019531 16.84375 "/><path style=" stroke:none;fill-rule:nonzero;fill:#000000;fill-opacity:1;" d="M 16.957031 16.84375 L 16.085938 16.84375 C 15.925781 16.84375 15.796875 16.714844 15.796875 16.558594 C 15.796875 16.398438 15.925781 16.269531 16.085938 16.269531 L 16.957031 16.269531 C 17.117188 16.269531 17.246094 16.398438 17.246094 16.558594 C 17.246094 16.714844 17.117188 16.84375 16.957031 16.84375 Z M 16.957031 16.84375 "/><path style=" stroke:none;fill-rule:nonzero;fill:#000000;fill-opacity:1;" d="M 18.988281 14.542969 L 16.085938 14.542969 C 15.925781 14.542969 15.796875 14.414062 15.796875 14.253906 C 15.796875 14.097656 15.925781 13.96875 16.085938 13.96875 L 18.988281 13.96875 C 19.148438 13.96875 19.277344 14.097656 19.277344 14.253906 C 19.277344 14.414062 19.148438 14.542969 18.988281 14.542969 Z M 18.988281 14.542969 "/><path style=" stroke:none;fill-rule:nonzero;fill:#000000;fill-opacity:1;" d="M 21.019531 14.542969 L 20.148438 14.542969 C 19.988281 14.542969 19.859375 14.414062 19.859375 14.253906 C 19.859375 14.097656 19.988281 13.96875 20.148438 13.96875 L 21.019531 13.96875 C 21.179688 13.96875 21.308594 14.097656 21.308594 14.253906 C 21.308594 14.414062 21.179688 14.542969 21.019531 14.542969 Z M 21.019531 14.542969 "/><path style=" stroke:none;fill-rule:nonzero;fill:#000000;fill-opacity:1;" d="M 21.019531 15.695312 L 18.117188 15.695312 C 17.957031 15.695312 17.828125 15.566406 17.828125 15.40625 C 17.828125 15.246094 17.957031 15.117188 18.117188 15.117188 L 21.019531 15.117188 C 21.179688 15.117188 21.308594 15.246094 21.308594 15.40625 C 21.308594 15.566406 21.179688 15.695312 21.019531 15.695312 Z M 21.019531 15.695312 "/><path style=" stroke:none;fill-rule:nonzero;fill:#000000;fill-opacity:1;" d="M 16.957031 15.695312 L 16.085938 15.695312 C 15.925781 15.695312 15.796875 15.566406 15.796875 15.40625 C 15.796875 15.246094 15.925781 15.117188 16.085938 15.117188 L 16.957031 15.117188 C 17.117188 15.117188 17.246094 15.246094 17.246094 15.40625 C 17.246094 15.566406 17.117188 15.695312 16.957031 15.695312 Z M 16.957031 15.695312 "/><g style="fill:#000000;fill-opacity:1;"><g transform="translate(28.299399, 12.991769)"><path style="stroke:none" d="M 3.09375 -0.609375 C 3.1875 -0.609375 3.257812 -0.578125 3.3125 -0.515625 C 3.375 -0.460938 3.40625 -0.390625 3.40625 -0.296875 C 3.40625 -0.210938 3.375 -0.140625 3.3125 -0.078125 C 3.257812 -0.0234375 3.1875 0 3.09375 0 L 0.859375 0 C 0.765625 0 0.6875 -0.03125 0.625 -0.09375 C 0.570312 -0.15625 0.546875 -0.226562 0.546875 -0.3125 L 0.546875 -4.296875 C 0.546875 -4.390625 0.578125 -4.460938 0.640625 -4.515625 C 0.703125 -4.578125 0.78125 -4.609375 0.875 -4.609375 C 0.96875 -4.609375 1.046875 -4.578125 1.109375 -4.515625 C 1.171875 -4.460938 1.203125 -4.390625 1.203125 -4.296875 L 1.203125 -0.609375 Z M 3.09375 -0.609375 "/></g></g><g style="fill:#000000;fill-opacity:1;"><g transform="translate(31.924553, 12.991769)"><path style="stroke:none" d="M 3.5 -1.859375 C 3.5 -1.773438 3.46875 -1.707031 3.40625 -1.65625 C 3.34375 -1.601562 3.269531 -1.578125 3.1875 -1.578125 L 0.859375 -1.578125 C 0.890625 -1.253906 1.007812 -0.992188 1.21875 -0.796875 C 1.4375 -0.609375 1.703125 -0.515625 2.015625 -0.515625 C 2.222656 -0.515625 2.390625 -0.546875 2.515625 -0.609375 C 2.648438 -0.671875 2.769531 -0.75 2.875 -0.84375 C 2.9375 -0.882812 3 -0.90625 3.0625 -0.90625 C 3.132812 -0.90625 3.195312 -0.878906 3.25 -0.828125 C 3.300781 -0.773438 3.328125 -0.710938 3.328125 -0.640625 C 3.328125 -0.546875 3.285156 -0.460938 3.203125 -0.390625 C 3.066406 -0.265625 2.894531 -0.15625 2.6875 -0.0625 C 2.476562 0.0195312 2.265625 0.0625 2.046875 0.0625 C 1.691406 0.0625 1.378906 -0.0078125 1.109375 -0.15625 C 0.835938 -0.300781 0.625 -0.507812 0.46875 -0.78125 C 0.320312 -1.050781 0.25 -1.351562 0.25 -1.6875 C 0.25 -2.0625 0.328125 -2.382812 0.484375 -2.65625 C 0.640625 -2.9375 0.835938 -3.148438 1.078125 -3.296875 C 1.328125 -3.453125 1.597656 -3.53125 1.890625 -3.53125 C 2.171875 -3.53125 2.429688 -3.457031 2.671875 -3.3125 C 2.921875 -3.164062 3.117188 -2.960938 3.265625 -2.703125 C 3.421875 -2.453125 3.5 -2.171875 3.5 -1.859375 Z M 1.890625 -2.953125 C 1.640625 -2.953125 1.421875 -2.878906 1.234375 -2.734375 C 1.054688 -2.597656 0.941406 -2.390625 0.890625 -2.109375 L 2.828125 -2.109375 L 2.828125 -2.15625 C 2.804688 -2.382812 2.703125 -2.570312 2.515625 -2.71875 C 2.328125 -2.875 2.117188 -2.953125 1.890625 -2.953125 Z M 1.890625 -2.953125 "/></g></g><g style="fill:#000000;fill-opacity:1;"><g transform="translate(35.681525, 12.991769)"><path style="stroke:none" d="M 1.0625 -0.3125 C 1.0625 -0.226562 1.03125 -0.15625 0.96875 -0.09375 C 0.914062 -0.03125 0.84375 0 0.75 0 C 0.65625 0 0.578125 -0.03125 0.515625 -0.09375 C 0.460938 -0.15625 0.4375 -0.226562 0.4375 -0.3125 L 0.4375 -3.171875 C 0.4375 -3.253906 0.460938 -3.328125 0.515625 -3.390625 C 0.578125 -3.453125 0.65625 -3.484375 0.75 -3.484375 C 0.84375 -3.484375 0.914062 -3.453125 0.96875 -3.390625 C 1.03125 -3.328125 1.0625 -3.253906 1.0625 -3.171875 Z M 0.75 -3.921875 C 0.625 -3.921875 0.53125 -3.941406 0.46875 -3.984375 C 0.414062 -4.035156 0.390625 -4.113281 0.390625 -4.21875 L 0.390625 -4.3125 C 0.390625 -4.425781 0.421875 -4.503906 0.484375 -4.546875 C 0.546875 -4.585938 0.640625 -4.609375 0.765625 -4.609375 C 0.878906 -4.609375 0.960938 -4.582031 1.015625 -4.53125 C 1.078125 -4.488281 1.109375 -4.414062 1.109375 -4.3125 L 1.109375 -4.21875 C 1.109375 -4.113281 1.078125 -4.035156 1.015625 -3.984375 C 0.960938 -3.941406 0.875 -3.921875 0.75 -3.921875 Z M 0.75 -3.921875 "/></g></g><g style="fill:#000000;fill-opacity:1;"><g transform="translate(37.177722, 12.991769)"><path style="stroke:none" d="M 1.265625 -4.078125 C 1.265625 -3.960938 1.226562 -3.832031 1.15625 -3.6875 C 1.082031 -3.550781 0.988281 -3.429688 0.875 -3.328125 C 0.769531 -3.234375 0.660156 -3.1875 0.546875 -3.1875 C 0.378906 -3.1875 0.296875 -3.257812 0.296875 -3.40625 C 0.296875 -3.457031 0.304688 -3.492188 0.328125 -3.515625 C 0.359375 -3.546875 0.394531 -3.566406 0.4375 -3.578125 C 0.488281 -3.585938 0.523438 -3.597656 0.546875 -3.609375 C 0.671875 -3.679688 0.734375 -3.78125 0.734375 -3.90625 C 0.734375 -3.957031 0.710938 -4 0.671875 -4.03125 C 0.640625 -4.0625 0.59375 -4.078125 0.53125 -4.078125 C 0.457031 -4.078125 0.394531 -4.0625 0.34375 -4.03125 C 0.300781 -4.050781 0.269531 -4.078125 0.25 -4.109375 C 0.226562 -4.148438 0.21875 -4.195312 0.21875 -4.25 C 0.21875 -4.351562 0.269531 -4.445312 0.375 -4.53125 C 0.488281 -4.613281 0.609375 -4.65625 0.734375 -4.65625 C 0.890625 -4.65625 1.015625 -4.601562 1.109375 -4.5 C 1.210938 -4.40625 1.265625 -4.265625 1.265625 -4.078125 Z M 1.265625 -4.078125 "/></g></g><g style="fill:#000000;fill-opacity:1;"><g transform="translate(38.766193, 12.991769)"><path style="stroke:none" d="M 0.265625 -0.546875 C 0.234375 -0.609375 0.21875 -0.664062 0.21875 -0.71875 C 0.21875 -0.800781 0.257812 -0.875 0.34375 -0.9375 C 0.394531 -0.96875 0.445312 -0.984375 0.5 -0.984375 C 0.582031 -0.984375 0.65625 -0.953125 0.71875 -0.890625 C 0.851562 -0.742188 0.992188 -0.628906 1.140625 -0.546875 C 1.296875 -0.472656 1.476562 -0.4375 1.6875 -0.4375 C 1.851562 -0.445312 2 -0.488281 2.125 -0.5625 C 2.257812 -0.632812 2.328125 -0.75 2.328125 -0.90625 C 2.328125 -1.0625 2.257812 -1.175781 2.125 -1.25 C 2 -1.332031 1.8125 -1.40625 1.5625 -1.46875 C 1.3125 -1.53125 1.101562 -1.597656 0.9375 -1.671875 C 0.78125 -1.742188 0.644531 -1.847656 0.53125 -1.984375 C 0.414062 -2.128906 0.359375 -2.3125 0.359375 -2.53125 C 0.359375 -2.726562 0.414062 -2.898438 0.53125 -3.046875 C 0.644531 -3.203125 0.796875 -3.320312 0.984375 -3.40625 C 1.171875 -3.488281 1.375 -3.53125 1.59375 -3.53125 C 1.800781 -3.53125 2.007812 -3.488281 2.21875 -3.40625 C 2.425781 -3.332031 2.597656 -3.210938 2.734375 -3.046875 C 2.785156 -2.984375 2.8125 -2.921875 2.8125 -2.859375 C 2.8125 -2.785156 2.773438 -2.71875 2.703125 -2.65625 C 2.660156 -2.613281 2.601562 -2.59375 2.53125 -2.59375 C 2.457031 -2.59375 2.394531 -2.617188 2.34375 -2.671875 C 2.25 -2.773438 2.132812 -2.851562 2 -2.90625 C 1.875 -2.96875 1.726562 -3 1.5625 -3 C 1.394531 -3 1.253906 -2.960938 1.140625 -2.890625 C 1.023438 -2.828125 0.96875 -2.71875 0.96875 -2.5625 C 0.96875 -2.40625 1.03125 -2.289062 1.15625 -2.21875 C 1.289062 -2.144531 1.492188 -2.070312 1.765625 -2 C 1.992188 -1.9375 2.1875 -1.867188 2.34375 -1.796875 C 2.5 -1.722656 2.628906 -1.617188 2.734375 -1.484375 C 2.835938 -1.347656 2.890625 -1.164062 2.890625 -0.9375 C 2.890625 -0.738281 2.828125 -0.5625 2.703125 -0.40625 C 2.585938 -0.25 2.429688 -0.128906 2.234375 -0.046875 C 2.046875 0.0234375 1.847656 0.0625 1.640625 0.0625 C 1.359375 0.0625 1.097656 0.015625 0.859375 -0.078125 C 0.628906 -0.171875 0.429688 -0.328125 0.265625 -0.546875 Z M 0.265625 -0.546875 "/></g></g><g style="fill:#000000;fill-opacity:1;"><g transform="translate(41.910191, 12.991769)"><path style="stroke:none" d=""/></g></g><g style="fill:#000000;fill-opacity:1;"><g transform="translate(43.735947, 12.991769)"><path style="stroke:none" d="M 2.390625 -4.609375 C 2.628906 -4.609375 2.847656 -4.546875 3.046875 -4.421875 C 3.242188 -4.296875 3.398438 -4.125 3.515625 -3.90625 C 3.628906 -3.695312 3.6875 -3.460938 3.6875 -3.203125 C 3.6875 -2.941406 3.628906 -2.703125 3.515625 -2.484375 C 3.398438 -2.265625 3.242188 -2.09375 3.046875 -1.96875 C 2.847656 -1.84375 2.628906 -1.78125 2.390625 -1.78125 L 1.15625 -1.78125 L 1.15625 -0.3125 C 1.15625 -0.226562 1.125 -0.15625 1.0625 -0.09375 C 1.007812 -0.03125 0.9375 0 0.84375 0 C 0.757812 0 0.6875 -0.0234375 0.625 -0.078125 C 0.570312 -0.140625 0.546875 -0.21875 0.546875 -0.3125 L 0.546875 -4.296875 C 0.546875 -4.390625 0.578125 -4.460938 0.640625 -4.515625 C 0.703125 -4.578125 0.773438 -4.609375 0.859375 -4.609375 Z M 2.390625 -2.375 C 2.515625 -2.375 2.625 -2.410156 2.71875 -2.484375 C 2.820312 -2.566406 2.898438 -2.671875 2.953125 -2.796875 C 3.015625 -2.921875 3.046875 -3.054688 3.046875 -3.203125 C 3.046875 -3.429688 2.976562 -3.625 2.84375 -3.78125 C 2.71875 -3.9375 2.566406 -4.015625 2.390625 -4.015625 L 1.15625 -4.015625 L 1.15625 -2.375 Z M 2.390625 -2.375 "/></g></g><g style="fill:#000000;fill-opacity:1;"><g transform="translate(47.690662, 12.991769)"><path style="stroke:none" d="M 3.734375 -1.734375 C 3.734375 -1.390625 3.65625 -1.078125 3.5 -0.796875 C 3.351562 -0.523438 3.144531 -0.3125 2.875 -0.15625 C 2.613281 -0.0078125 2.320312 0.0625 2 0.0625 C 1.675781 0.0625 1.378906 -0.0078125 1.109375 -0.15625 C 0.847656 -0.3125 0.640625 -0.523438 0.484375 -0.796875 C 0.328125 -1.078125 0.25 -1.390625 0.25 -1.734375 C 0.25 -2.066406 0.328125 -2.375 0.484375 -2.65625 C 0.640625 -2.9375 0.847656 -3.148438 1.109375 -3.296875 C 1.378906 -3.453125 1.675781 -3.53125 2 -3.53125 C 2.320312 -3.53125 2.613281 -3.453125 2.875 -3.296875 C 3.144531 -3.148438 3.351562 -2.9375 3.5 -2.65625 C 3.65625 -2.375 3.734375 -2.066406 3.734375 -1.734375 Z M 3.109375 -1.734375 C 3.109375 -1.960938 3.054688 -2.171875 2.953125 -2.359375 C 2.859375 -2.546875 2.726562 -2.691406 2.5625 -2.796875 C 2.394531 -2.898438 2.207031 -2.953125 2 -2.953125 C 1.789062 -2.953125 1.601562 -2.898438 1.4375 -2.796875 C 1.269531 -2.691406 1.132812 -2.546875 1.03125 -2.359375 C 0.9375 -2.171875 0.890625 -1.960938 0.890625 -1.734375 C 0.890625 -1.492188 0.9375 -1.28125 1.03125 -1.09375 C 1.132812 -0.914062 1.269531 -0.773438 1.4375 -0.671875 C 1.601562 -0.566406 1.789062 -0.515625 2 -0.515625 C 2.207031 -0.515625 2.394531 -0.566406 2.5625 -0.671875 C 2.726562 -0.773438 2.859375 -0.914062 2.953125 -1.09375 C 3.054688 -1.28125 3.109375 -1.492188 3.109375 -1.734375 Z M 3.109375 -1.734375 "/></g></g><g style="fill:#000000;fill-opacity:1;"><g transform="translate(51.684919, 12.991769)"><path style="stroke:none" d="M 2.1875 -3.53125 C 2.300781 -3.53125 2.398438 -3.5 2.484375 -3.4375 C 2.566406 -3.382812 2.609375 -3.3125 2.609375 -3.21875 C 2.609375 -3.113281 2.582031 -3.035156 2.53125 -2.984375 C 2.476562 -2.929688 2.410156 -2.90625 2.328125 -2.90625 C 2.285156 -2.90625 2.226562 -2.914062 2.15625 -2.9375 C 2.0625 -2.96875 1.988281 -2.984375 1.9375 -2.984375 C 1.800781 -2.984375 1.664062 -2.9375 1.53125 -2.84375 C 1.40625 -2.75 1.300781 -2.617188 1.21875 -2.453125 C 1.132812 -2.285156 1.09375 -2.101562 1.09375 -1.90625 L 1.09375 -0.3125 C 1.09375 -0.226562 1.0625 -0.15625 1 -0.09375 C 0.945312 -0.03125 0.875 0 0.78125 0 C 0.6875 0 0.609375 -0.0234375 0.546875 -0.078125 C 0.492188 -0.140625 0.46875 -0.21875 0.46875 -0.3125 L 0.46875 -3.140625 C 0.46875 -3.222656 0.492188 -3.296875 0.546875 -3.359375 C 0.609375 -3.421875 0.6875 -3.453125 0.78125 -3.453125 C 0.875 -3.453125 0.945312 -3.421875 1 -3.359375 C 1.0625 -3.296875 1.09375 -3.222656 1.09375 -3.140625 L 1.09375 -2.796875 C 1.1875 -3.015625 1.328125 -3.191406 1.515625 -3.328125 C 1.710938 -3.460938 1.9375 -3.53125 2.1875 -3.53125 Z M 2.1875 -3.53125 "/></g></g><g style="fill:#000000;fill-opacity:1;"><g transform="translate(54.40708, 12.991769)"><path style="stroke:none" d="M 1.40625 -2.84375 L 1.40625 -0.875 C 1.40625 -0.65625 1.503906 -0.546875 1.703125 -0.546875 C 1.734375 -0.546875 1.773438 -0.550781 1.828125 -0.5625 C 1.878906 -0.582031 1.921875 -0.59375 1.953125 -0.59375 C 2.003906 -0.59375 2.050781 -0.566406 2.09375 -0.515625 C 2.132812 -0.472656 2.15625 -0.414062 2.15625 -0.34375 C 2.15625 -0.25 2.101562 -0.164062 2 -0.09375 C 1.894531 -0.03125 1.773438 0 1.640625 0 C 1.492188 0 1.359375 -0.015625 1.234375 -0.046875 C 1.117188 -0.078125 1.015625 -0.15625 0.921875 -0.28125 C 0.828125 -0.40625 0.78125 -0.59375 0.78125 -0.84375 L 0.78125 -2.84375 L 0.390625 -2.84375 C 0.304688 -2.84375 0.238281 -2.867188 0.1875 -2.921875 C 0.132812 -2.972656 0.109375 -3.039062 0.109375 -3.125 C 0.109375 -3.207031 0.132812 -3.273438 0.1875 -3.328125 C 0.238281 -3.390625 0.304688 -3.421875 0.390625 -3.421875 L 0.78125 -3.421875 L 0.78125 -3.96875 C 0.78125 -4.050781 0.804688 -4.125 0.859375 -4.1875 C 0.921875 -4.25 1 -4.28125 1.09375 -4.28125 C 1.175781 -4.28125 1.25 -4.25 1.3125 -4.1875 C 1.375 -4.125 1.40625 -4.050781 1.40625 -3.96875 L 1.40625 -3.421875 L 1.953125 -3.421875 C 2.035156 -3.421875 2.101562 -3.390625 2.15625 -3.328125 C 2.207031 -3.273438 2.234375 -3.207031 2.234375 -3.125 C 2.234375 -3.039062 2.207031 -2.972656 2.15625 -2.921875 C 2.101562 -2.867188 2.035156 -2.84375 1.953125 -2.84375 Z M 1.40625 -2.84375 "/></g></g><g style="fill:#000000;fill-opacity:1;"><g transform="translate(56.911728, 12.991769)"><path style="stroke:none" d="M 1.9375 -4.3125 C 1.800781 -4.3125 1.695312 -4.265625 1.625 -4.171875 C 1.550781 -4.085938 1.515625 -3.984375 1.515625 -3.859375 L 1.515625 -3.390625 L 2.171875 -3.390625 C 2.265625 -3.390625 2.335938 -3.363281 2.390625 -3.3125 C 2.441406 -3.257812 2.46875 -3.191406 2.46875 -3.109375 C 2.46875 -3.023438 2.441406 -2.957031 2.390625 -2.90625 C 2.335938 -2.851562 2.265625 -2.828125 2.171875 -2.828125 L 1.515625 -2.828125 L 1.515625 -0.3125 C 1.515625 -0.226562 1.484375 -0.15625 1.421875 -0.09375 C 1.367188 -0.03125 1.296875 0 1.203125 0 C 1.117188 0 1.046875 -0.03125 0.984375 -0.09375 C 0.921875 -0.15625 0.890625 -0.226562 0.890625 -0.3125 L 0.890625 -2.828125 L 0.484375 -2.828125 C 0.398438 -2.828125 0.328125 -2.851562 0.265625 -2.90625 C 0.210938 -2.957031 0.1875 -3.023438 0.1875 -3.109375 C 0.1875 -3.191406 0.210938 -3.257812 0.265625 -3.3125 C 0.328125 -3.363281 0.398438 -3.390625 0.484375 -3.390625 L 0.890625 -3.390625 L 0.890625 -3.859375 C 0.890625 -4.160156 0.988281 -4.398438 1.1875 -4.578125 C 1.382812 -4.765625 1.664062 -4.859375 2.03125 -4.859375 C 2.175781 -4.859375 2.304688 -4.832031 2.421875 -4.78125 C 2.535156 -4.726562 2.59375 -4.644531 2.59375 -4.53125 C 2.59375 -4.445312 2.566406 -4.378906 2.515625 -4.328125 C 2.472656 -4.273438 2.414062 -4.25 2.34375 -4.25 C 2.320312 -4.25 2.273438 -4.253906 2.203125 -4.265625 C 2.097656 -4.296875 2.007812 -4.3125 1.9375 -4.3125 Z M 1.9375 -4.3125 "/></g></g><g style="fill:#000000;fill-opacity:1;"><g transform="translate(59.482293, 12.991769)"><path style="stroke:none" d="M 3.734375 -1.734375 C 3.734375 -1.390625 3.65625 -1.078125 3.5 -0.796875 C 3.351562 -0.523438 3.144531 -0.3125 2.875 -0.15625 C 2.613281 -0.0078125 2.320312 0.0625 2 0.0625 C 1.675781 0.0625 1.378906 -0.0078125 1.109375 -0.15625 C 0.847656 -0.3125 0.640625 -0.523438 0.484375 -0.796875 C 0.328125 -1.078125 0.25 -1.390625 0.25 -1.734375 C 0.25 -2.066406 0.328125 -2.375 0.484375 -2.65625 C 0.640625 -2.9375 0.847656 -3.148438 1.109375 -3.296875 C 1.378906 -3.453125 1.675781 -3.53125 2 -3.53125 C 2.320312 -3.53125 2.613281 -3.453125 2.875 -3.296875 C 3.144531 -3.148438 3.351562 -2.9375 3.5 -2.65625 C 3.65625 -2.375 3.734375 -2.066406 3.734375 -1.734375 Z M 3.109375 -1.734375 C 3.109375 -1.960938 3.054688 -2.171875 2.953125 -2.359375 C 2.859375 -2.546875 2.726562 -2.691406 2.5625 -2.796875 C 2.394531 -2.898438 2.207031 -2.953125 2 -2.953125 C 1.789062 -2.953125 1.601562 -2.898438 1.4375 -2.796875 C 1.269531 -2.691406 1.132812 -2.546875 1.03125 -2.359375 C 0.9375 -2.171875 0.890625 -1.960938 0.890625 -1.734375 C 0.890625 -1.492188 0.9375 -1.28125 1.03125 -1.09375 C 1.132812 -0.914062 1.269531 -0.773438 1.4375 -0.671875 C 1.601562 -0.566406 1.789062 -0.515625 2 -0.515625 C 2.207031 -0.515625 2.394531 -0.566406 2.5625 -0.671875 C 2.726562 -0.773438 2.859375 -0.914062 2.953125 -1.09375 C 3.054688 -1.28125 3.109375 -1.492188 3.109375 -1.734375 Z M 3.109375 -1.734375 "/></g></g><g style="fill:#000000;fill-opacity:1;"><g transform="translate(63.47655, 12.991769)"><path style="stroke:none" d="M 1.140625 -0.3125 C 1.140625 -0.226562 1.109375 -0.15625 1.046875 -0.09375 C 0.992188 -0.03125 0.921875 0 0.828125 0 C 0.742188 0 0.671875 -0.03125 0.609375 -0.09375 C 0.546875 -0.15625 0.515625 -0.226562 0.515625 -0.3125 L 0.515625 -4.5625 C 0.515625 -4.644531 0.546875 -4.71875 0.609375 -4.78125 C 0.671875 -4.84375 0.75 -4.875 0.84375 -4.875 C 0.925781 -4.875 0.992188 -4.84375 1.046875 -4.78125 C 1.109375 -4.71875 1.140625 -4.644531 1.140625 -4.5625 Z M 1.140625 -0.3125 "/></g></g><g style="fill:#000000;fill-opacity:1;"><g transform="translate(65.144122, 12.991769)"><path style="stroke:none" d="M 1.0625 -0.3125 C 1.0625 -0.226562 1.03125 -0.15625 0.96875 -0.09375 C 0.914062 -0.03125 0.84375 0 0.75 0 C 0.65625 0 0.578125 -0.03125 0.515625 -0.09375 C 0.460938 -0.15625 0.4375 -0.226562 0.4375 -0.3125 L 0.4375 -3.171875 C 0.4375 -3.253906 0.460938 -3.328125 0.515625 -3.390625 C 0.578125 -3.453125 0.65625 -3.484375 0.75 -3.484375 C 0.84375 -3.484375 0.914062 -3.453125 0.96875 -3.390625 C 1.03125 -3.328125 1.0625 -3.253906 1.0625 -3.171875 Z M 0.75 -3.921875 C 0.625 -3.921875 0.53125 -3.941406 0.46875 -3.984375 C 0.414062 -4.035156 0.390625 -4.113281 0.390625 -4.21875 L 0.390625 -4.3125 C 0.390625 -4.425781 0.421875 -4.503906 0.484375 -4.546875 C 0.546875 -4.585938 0.640625 -4.609375 0.765625 -4.609375 C 0.878906 -4.609375 0.960938 -4.582031 1.015625 -4.53125 C 1.078125 -4.488281 1.109375 -4.414062 1.109375 -4.3125 L 1.109375 -4.21875 C 1.109375 -4.113281 1.078125 -4.035156 1.015625 -3.984375 C 0.960938 -3.941406 0.875 -3.921875 0.75 -3.921875 Z M 0.75 -3.921875 "/></g></g><g style="fill:#000000;fill-opacity:1;"><g transform="translate(66.640319, 12.991769)"><path style="stroke:none" d="M 3.734375 -1.734375 C 3.734375 -1.390625 3.65625 -1.078125 3.5 -0.796875 C 3.351562 -0.523438 3.144531 -0.3125 2.875 -0.15625 C 2.613281 -0.0078125 2.320312 0.0625 2 0.0625 C 1.675781 0.0625 1.378906 -0.0078125 1.109375 -0.15625 C 0.847656 -0.3125 0.640625 -0.523438 0.484375 -0.796875 C 0.328125 -1.078125 0.25 -1.390625 0.25 -1.734375 C 0.25 -2.066406 0.328125 -2.375 0.484375 -2.65625 C 0.640625 -2.9375 0.847656 -3.148438 1.109375 -3.296875 C 1.378906 -3.453125 1.675781 -3.53125 2 -3.53125 C 2.320312 -3.53125 2.613281 -3.453125 2.875 -3.296875 C 3.144531 -3.148438 3.351562 -2.9375 3.5 -2.65625 C 3.65625 -2.375 3.734375 -2.066406 3.734375 -1.734375 Z M 3.109375 -1.734375 C 3.109375 -1.960938 3.054688 -2.171875 2.953125 -2.359375 C 2.859375 -2.546875 2.726562 -2.691406 2.5625 -2.796875 C 2.394531 -2.898438 2.207031 -2.953125 2 -2.953125 C 1.789062 -2.953125 1.601562 -2.898438 1.4375 -2.796875 C 1.269531 -2.691406 1.132812 -2.546875 1.03125 -2.359375 C 0.9375 -2.171875 0.890625 -1.960938 0.890625 -1.734375 C 0.890625 -1.492188 0.9375 -1.28125 1.03125 -1.09375 C 1.132812 -0.914062 1.269531 -0.773438 1.4375 -0.671875 C 1.601562 -0.566406 1.789062 -0.515625 2 -0.515625 C 2.207031 -0.515625 2.394531 -0.566406 2.5625 -0.671875 C 2.726562 -0.773438 2.859375 -0.914062 2.953125 -1.09375 C 3.054688 -1.28125 3.109375 -1.492188 3.109375 -1.734375 Z M 3.109375 -1.734375 "/></g></g><g style="fill:#000000;fill-opacity:1;"><g transform="translate(26.835861, 19.362549)"><path style="stroke:none" d="M 1.96875 0 L 1.640625 -0.8125 L 0.625 -0.8125 L 0.296875 0 L 0 0 L 1.015625 -2.578125 L 1.265625 -2.578125 L 2.28125 0 Z M 1.546875 -1.078125 L 1.25 -1.875 C 1.21875 -1.976562 1.179688 -2.101562 1.140625 -2.25 C 1.109375 -2.132812 1.070312 -2.007812 1.03125 -1.875 L 0.71875 -1.078125 Z M 1.546875 -1.078125 "/></g></g><g style="fill:#000000;fill-opacity:1;"><g transform="translate(29.902165, 19.362549)"><path style="stroke:none" d="M 1.546875 -0.53125 C 1.546875 -0.34375 1.476562 -0.203125 1.34375 -0.109375 C 1.21875 -0.015625 1.03125 0.03125 0.78125 0.03125 C 0.53125 0.03125 0.332031 -0.0078125 0.1875 -0.09375 L 0.1875 -0.359375 C 0.28125 -0.304688 0.378906 -0.265625 0.484375 -0.234375 C 0.585938 -0.210938 0.691406 -0.203125 0.796875 -0.203125 C 0.941406 -0.203125 1.054688 -0.222656 1.140625 -0.265625 C 1.222656 -0.316406 1.265625 -0.394531 1.265625 -0.5 C 1.265625 -0.570312 1.234375 -0.632812 1.171875 -0.6875 C 1.109375 -0.738281 0.984375 -0.800781 0.796875 -0.875 C 0.609375 -0.945312 0.476562 -1.003906 0.40625 -1.046875 C 0.332031 -1.097656 0.273438 -1.15625 0.234375 -1.21875 C 0.203125 -1.28125 0.1875 -1.359375 0.1875 -1.453125 C 0.1875 -1.609375 0.25 -1.726562 0.375 -1.8125 C 0.5 -1.90625 0.675781 -1.953125 0.90625 -1.953125 C 1.113281 -1.953125 1.316406 -1.910156 1.515625 -1.828125 L 1.40625 -1.59375 C 1.207031 -1.675781 1.03125 -1.71875 0.875 -1.71875 C 0.738281 -1.71875 0.632812 -1.691406 0.5625 -1.640625 C 0.5 -1.597656 0.46875 -1.539062 0.46875 -1.46875 C 0.46875 -1.414062 0.476562 -1.367188 0.5 -1.328125 C 0.53125 -1.296875 0.570312 -1.265625 0.625 -1.234375 C 0.6875 -1.203125 0.800781 -1.15625 0.96875 -1.09375 C 1.195312 -1.007812 1.347656 -0.925781 1.421875 -0.84375 C 1.503906 -0.757812 1.546875 -0.65625 1.546875 -0.53125 Z M 1.546875 -0.53125 "/></g></g><g style="fill:#000000;fill-opacity:1;"><g transform="translate(32.408424, 19.362549)"><path style="stroke:none" d="M 1.203125 0.03125 C 1.078125 0.03125 0.960938 0.0078125 0.859375 -0.03125 C 0.753906 -0.0820312 0.664062 -0.15625 0.59375 -0.25 L 0.578125 -0.25 C 0.585938 -0.132812 0.59375 -0.0234375 0.59375 0.078125 L 0.59375 0.859375 L 0.3125 0.859375 L 0.3125 -1.921875 L 0.546875 -1.921875 L 0.59375 -1.65625 C 0.675781 -1.757812 0.765625 -1.832031 0.859375 -1.875 C 0.960938 -1.925781 1.078125 -1.953125 1.203125 -1.953125 C 1.460938 -1.953125 1.660156 -1.863281 1.796875 -1.6875 C 1.929688 -1.519531 2 -1.28125 2 -0.96875 C 2 -0.644531 1.925781 -0.394531 1.78125 -0.21875 C 1.644531 -0.0507812 1.453125 0.03125 1.203125 0.03125 Z M 1.15625 -1.703125 C 0.957031 -1.703125 0.816406 -1.648438 0.734375 -1.546875 C 0.648438 -1.441406 0.601562 -1.269531 0.59375 -1.03125 L 0.59375 -0.96875 C 0.59375 -0.695312 0.640625 -0.5 0.734375 -0.375 C 0.828125 -0.257812 0.972656 -0.203125 1.171875 -0.203125 C 1.335938 -0.203125 1.46875 -0.269531 1.5625 -0.40625 C 1.65625 -0.539062 1.703125 -0.726562 1.703125 -0.96875 C 1.703125 -1.207031 1.65625 -1.390625 1.5625 -1.515625 C 1.46875 -1.640625 1.332031 -1.703125 1.15625 -1.703125 Z M 1.15625 -1.703125 "/></g></g><g style="fill:#000000;fill-opacity:1;"><g transform="translate(35.402746, 19.362549)"><path style="stroke:none" d="M 0.59375 0 L 0.3125 0 L 0.3125 -1.921875 L 0.59375 -1.921875 Z M 0.28125 -2.4375 C 0.28125 -2.507812 0.296875 -2.5625 0.328125 -2.59375 C 0.359375 -2.625 0.398438 -2.640625 0.453125 -2.640625 C 0.503906 -2.640625 0.546875 -2.625 0.578125 -2.59375 C 0.609375 -2.5625 0.625 -2.507812 0.625 -2.4375 C 0.625 -2.375 0.609375 -2.328125 0.578125 -2.296875 C 0.546875 -2.265625 0.503906 -2.25 0.453125 -2.25 C 0.398438 -2.25 0.359375 -2.265625 0.328125 -2.296875 C 0.296875 -2.328125 0.28125 -2.375 0.28125 -2.4375 Z M 0.28125 -2.4375 "/></g></g><g style="fill:#000000;fill-opacity:1;"><g transform="translate(37.103174, 19.362549)"><path style="stroke:none" d="M 1.1875 -1.953125 C 1.269531 -1.953125 1.347656 -1.945312 1.421875 -1.9375 L 1.375 -1.671875 C 1.289062 -1.679688 1.222656 -1.6875 1.171875 -1.6875 C 1.015625 -1.6875 0.878906 -1.625 0.765625 -1.5 C 0.648438 -1.375 0.59375 -1.21875 0.59375 -1.03125 L 0.59375 0 L 0.3125 0 L 0.3125 -1.921875 L 0.546875 -1.921875 L 0.578125 -1.5625 L 0.59375 -1.5625 C 0.664062 -1.6875 0.75 -1.78125 0.84375 -1.84375 C 0.945312 -1.914062 1.0625 -1.953125 1.1875 -1.953125 Z M 1.1875 -1.953125 "/></g></g><g style="fill:#000000;fill-opacity:1;"><g transform="translate(39.36189, 19.362549)"><path style="stroke:none" d="M 0.59375 0 L 0.3125 0 L 0.3125 -1.921875 L 0.59375 -1.921875 Z M 0.28125 -2.4375 C 0.28125 -2.507812 0.296875 -2.5625 0.328125 -2.59375 C 0.359375 -2.625 0.398438 -2.640625 0.453125 -2.640625 C 0.503906 -2.640625 0.546875 -2.625 0.578125 -2.59375 C 0.609375 -2.5625 0.625 -2.507812 0.625 -2.4375 C 0.625 -2.375 0.609375 -2.328125 0.578125 -2.296875 C 0.546875 -2.265625 0.503906 -2.25 0.453125 -2.25 C 0.398438 -2.25 0.359375 -2.265625 0.328125 -2.296875 C 0.296875 -2.328125 0.28125 -2.375 0.28125 -2.4375 Z M 0.28125 -2.4375 "/></g></g><g style="fill:#000000;fill-opacity:1;"><g transform="translate(41.062317, 19.362549)"><path style="stroke:none" d="M 1.625 0 L 1.625 -1.25 C 1.625 -1.40625 1.585938 -1.519531 1.515625 -1.59375 C 1.441406 -1.664062 1.332031 -1.703125 1.1875 -1.703125 C 0.976562 -1.703125 0.828125 -1.648438 0.734375 -1.546875 C 0.640625 -1.441406 0.59375 -1.265625 0.59375 -1.015625 L 0.59375 0 L 0.3125 0 L 0.3125 -1.921875 L 0.546875 -1.921875 L 0.59375 -1.65625 L 0.609375 -1.65625 C 0.671875 -1.75 0.753906 -1.820312 0.859375 -1.875 C 0.960938 -1.925781 1.082031 -1.953125 1.21875 -1.953125 C 1.445312 -1.953125 1.617188 -1.894531 1.734375 -1.78125 C 1.859375 -1.675781 1.921875 -1.5 1.921875 -1.25 L 1.921875 0 Z M 1.625 0 "/></g></g><g style="fill:#000000;fill-opacity:1;"><g transform="translate(44.060151, 19.362549)"><path style="stroke:none" d="M 1.890625 -1.921875 L 1.890625 -1.734375 L 1.53125 -1.703125 C 1.5625 -1.660156 1.585938 -1.601562 1.609375 -1.53125 C 1.640625 -1.46875 1.65625 -1.394531 1.65625 -1.3125 C 1.65625 -1.125 1.585938 -0.972656 1.453125 -0.859375 C 1.328125 -0.742188 1.15625 -0.6875 0.9375 -0.6875 C 0.875 -0.6875 0.816406 -0.691406 0.765625 -0.703125 C 0.640625 -0.640625 0.578125 -0.554688 0.578125 -0.453125 C 0.578125 -0.398438 0.597656 -0.363281 0.640625 -0.34375 C 0.691406 -0.320312 0.769531 -0.3125 0.875 -0.3125 L 1.203125 -0.3125 C 1.410156 -0.3125 1.570312 -0.265625 1.6875 -0.171875 C 1.800781 -0.0859375 1.859375 0.0351562 1.859375 0.203125 C 1.859375 0.421875 1.769531 0.582031 1.59375 0.6875 C 1.425781 0.800781 1.179688 0.859375 0.859375 0.859375 C 0.609375 0.859375 0.410156 0.8125 0.265625 0.71875 C 0.128906 0.625 0.0625 0.492188 0.0625 0.328125 C 0.0625 0.210938 0.0976562 0.109375 0.171875 0.015625 C 0.253906 -0.0664062 0.363281 -0.125 0.5 -0.15625 C 0.445312 -0.175781 0.40625 -0.207031 0.375 -0.25 C 0.34375 -0.300781 0.328125 -0.359375 0.328125 -0.421875 C 0.328125 -0.484375 0.34375 -0.539062 0.375 -0.59375 C 0.414062 -0.65625 0.476562 -0.707031 0.5625 -0.75 C 0.457031 -0.789062 0.375 -0.859375 0.3125 -0.953125 C 0.25 -1.054688 0.21875 -1.171875 0.21875 -1.296875 C 0.21875 -1.503906 0.28125 -1.664062 0.40625 -1.78125 C 0.53125 -1.894531 0.710938 -1.953125 0.953125 -1.953125 C 1.046875 -1.953125 1.132812 -1.941406 1.21875 -1.921875 Z M 0.34375 0.328125 C 0.34375 0.429688 0.382812 0.507812 0.46875 0.5625 C 0.5625 0.613281 0.691406 0.640625 0.859375 0.640625 C 1.097656 0.640625 1.273438 0.601562 1.390625 0.53125 C 1.515625 0.457031 1.578125 0.359375 1.578125 0.234375 C 1.578125 0.128906 1.546875 0.0546875 1.484375 0.015625 C 1.421875 -0.0234375 1.300781 -0.046875 1.125 -0.046875 L 0.765625 -0.046875 C 0.628906 -0.046875 0.523438 -0.015625 0.453125 0.046875 C 0.378906 0.109375 0.34375 0.203125 0.34375 0.328125 Z M 0.5 -1.3125 C 0.5 -1.175781 0.535156 -1.070312 0.609375 -1 C 0.691406 -0.9375 0.800781 -0.90625 0.9375 -0.90625 C 1.21875 -0.90625 1.359375 -1.039062 1.359375 -1.3125 C 1.359375 -1.601562 1.21875 -1.75 0.9375 -1.75 C 0.800781 -1.75 0.691406 -1.710938 0.609375 -1.640625 C 0.535156 -1.566406 0.5 -1.457031 0.5 -1.3125 Z M 0.5 -1.3125 "/></g></g><g style="fill:#000000;fill-opacity:1;"><g transform="translate(46.820976, 19.362549)"><path style="stroke:none" d=""/></g></g><g style="fill:#000000;fill-opacity:1;"><g transform="translate(48.545982, 19.362549)"><path style="stroke:none" d="M 2.40625 -1.3125 C 2.40625 -0.882812 2.285156 -0.554688 2.046875 -0.328125 C 1.816406 -0.109375 1.488281 0 1.0625 0 L 0.359375 0 L 0.359375 -2.5625 L 1.140625 -2.5625 C 1.535156 -2.5625 1.84375 -2.453125 2.0625 -2.234375 C 2.289062 -2.015625 2.40625 -1.707031 2.40625 -1.3125 Z M 2.078125 -1.296875 C 2.078125 -1.628906 1.992188 -1.878906 1.828125 -2.046875 C 1.660156 -2.222656 1.410156 -2.3125 1.078125 -2.3125 L 0.65625 -2.3125 L 0.65625 -0.265625 L 1.015625 -0.265625 C 1.367188 -0.265625 1.632812 -0.347656 1.8125 -0.515625 C 1.988281 -0.691406 2.078125 -0.953125 2.078125 -1.296875 Z M 2.078125 -1.296875 "/></g></g><g style="fill:#000000;fill-opacity:1;"><g transform="translate(51.958143, 19.362549)"><path style="stroke:none" d="M 1.125 0.03125 C 0.832031 0.03125 0.601562 -0.0507812 0.4375 -0.21875 C 0.28125 -0.394531 0.203125 -0.640625 0.203125 -0.953125 C 0.203125 -1.253906 0.273438 -1.492188 0.421875 -1.671875 C 0.578125 -1.859375 0.785156 -1.953125 1.046875 -1.953125 C 1.285156 -1.953125 1.472656 -1.875 1.609375 -1.71875 C 1.753906 -1.5625 1.828125 -1.351562 1.828125 -1.09375 L 1.828125 -0.90625 L 0.5 -0.90625 C 0.507812 -0.675781 0.566406 -0.503906 0.671875 -0.390625 C 0.785156 -0.273438 0.9375 -0.21875 1.125 -0.21875 C 1.332031 -0.21875 1.539062 -0.257812 1.75 -0.34375 L 1.75 -0.09375 C 1.644531 -0.0390625 1.546875 -0.0078125 1.453125 0 C 1.359375 0.0195312 1.25 0.03125 1.125 0.03125 Z M 1.046875 -1.71875 C 0.890625 -1.71875 0.765625 -1.664062 0.671875 -1.5625 C 0.578125 -1.457031 0.523438 -1.316406 0.515625 -1.140625 L 1.515625 -1.140625 C 1.515625 -1.328125 1.472656 -1.46875 1.390625 -1.5625 C 1.304688 -1.664062 1.191406 -1.71875 1.046875 -1.71875 Z M 1.046875 -1.71875 "/></g></g><g style="fill:#000000;fill-opacity:1;"><g transform="translate(54.766369, 19.362549)"><path style="stroke:none" d="M 0.734375 0 L 0 -1.921875 L 0.3125 -1.921875 L 0.71875 -0.78125 C 0.8125 -0.507812 0.867188 -0.335938 0.890625 -0.265625 L 0.90625 -0.265625 C 0.914062 -0.328125 0.953125 -0.453125 1.015625 -0.640625 C 1.085938 -0.835938 1.242188 -1.265625 1.484375 -1.921875 L 1.796875 -1.921875 L 1.078125 0 Z M 0.734375 0 "/></g></g><g style="fill:#000000;fill-opacity:1;"><g transform="translate(57.358654, 19.362549)"><path style="stroke:none" d="M 1.125 0.03125 C 0.832031 0.03125 0.601562 -0.0507812 0.4375 -0.21875 C 0.28125 -0.394531 0.203125 -0.640625 0.203125 -0.953125 C 0.203125 -1.253906 0.273438 -1.492188 0.421875 -1.671875 C 0.578125 -1.859375 0.785156 -1.953125 1.046875 -1.953125 C 1.285156 -1.953125 1.472656 -1.875 1.609375 -1.71875 C 1.753906 -1.5625 1.828125 -1.351562 1.828125 -1.09375 L 1.828125 -0.90625 L 0.5 -0.90625 C 0.507812 -0.675781 0.566406 -0.503906 0.671875 -0.390625 C 0.785156 -0.273438 0.9375 -0.21875 1.125 -0.21875 C 1.332031 -0.21875 1.539062 -0.257812 1.75 -0.34375 L 1.75 -0.09375 C 1.644531 -0.0390625 1.546875 -0.0078125 1.453125 0 C 1.359375 0.0195312 1.25 0.03125 1.125 0.03125 Z M 1.046875 -1.71875 C 0.890625 -1.71875 0.765625 -1.664062 0.671875 -1.5625 C 0.578125 -1.457031 0.523438 -1.316406 0.515625 -1.140625 L 1.515625 -1.140625 C 1.515625 -1.328125 1.472656 -1.46875 1.390625 -1.5625 C 1.304688 -1.664062 1.191406 -1.71875 1.046875 -1.71875 Z M 1.046875 -1.71875 "/></g></g><g style="fill:#000000;fill-opacity:1;"><g transform="translate(60.16688, 19.362549)"><path style="stroke:none" d="M 0.59375 0 L 0.3125 0 L 0.3125 -2.734375 L 0.59375 -2.734375 Z M 0.59375 0 "/></g></g><g style="fill:#000000;fill-opacity:1;"><g transform="translate(61.867308, 19.362549)"><path style="stroke:none" d="M 1.96875 -0.96875 C 1.96875 -0.65625 1.890625 -0.410156 1.734375 -0.234375 C 1.578125 -0.0546875 1.359375 0.03125 1.078125 0.03125 C 0.898438 0.03125 0.742188 -0.00390625 0.609375 -0.078125 C 0.484375 -0.160156 0.382812 -0.273438 0.3125 -0.421875 C 0.238281 -0.578125 0.203125 -0.757812 0.203125 -0.96875 C 0.203125 -1.28125 0.28125 -1.519531 0.4375 -1.6875 C 0.59375 -1.863281 0.8125 -1.953125 1.09375 -1.953125 C 1.363281 -1.953125 1.578125 -1.863281 1.734375 -1.6875 C 1.890625 -1.507812 1.96875 -1.269531 1.96875 -0.96875 Z M 0.5 -0.96875 C 0.5 -0.71875 0.546875 -0.523438 0.640625 -0.390625 C 0.742188 -0.265625 0.890625 -0.203125 1.078125 -0.203125 C 1.273438 -0.203125 1.421875 -0.265625 1.515625 -0.390625 C 1.617188 -0.523438 1.671875 -0.71875 1.671875 -0.96875 C 1.671875 -1.207031 1.617188 -1.390625 1.515625 -1.515625 C 1.421875 -1.640625 1.273438 -1.703125 1.078125 -1.703125 C 0.890625 -1.703125 0.742188 -1.640625 0.640625 -1.515625 C 0.546875 -1.390625 0.5 -1.207031 0.5 -0.96875 Z M 0.5 -0.96875 "/></g></g><g style="fill:#000000;fill-opacity:1;"><g transform="translate(64.830029, 19.362549)"><path style="stroke:none" d="M 1.203125 0.03125 C 1.078125 0.03125 0.960938 0.0078125 0.859375 -0.03125 C 0.753906 -0.0820312 0.664062 -0.15625 0.59375 -0.25 L 0.578125 -0.25 C 0.585938 -0.132812 0.59375 -0.0234375 0.59375 0.078125 L 0.59375 0.859375 L 0.3125 0.859375 L 0.3125 -1.921875 L 0.546875 -1.921875 L 0.59375 -1.65625 C 0.675781 -1.757812 0.765625 -1.832031 0.859375 -1.875 C 0.960938 -1.925781 1.078125 -1.953125 1.203125 -1.953125 C 1.460938 -1.953125 1.660156 -1.863281 1.796875 -1.6875 C 1.929688 -1.519531 2 -1.28125 2 -0.96875 C 2 -0.644531 1.925781 -0.394531 1.78125 -0.21875 C 1.644531 -0.0507812 1.453125 0.03125 1.203125 0.03125 Z M 1.15625 -1.703125 C 0.957031 -1.703125 0.816406 -1.648438 0.734375 -1.546875 C 0.648438 -1.441406 0.601562 -1.269531 0.59375 -1.03125 L 0.59375 -0.96875 C 0.59375 -0.695312 0.640625 -0.5 0.734375 -0.375 C 0.828125 -0.257812 0.972656 -0.203125 1.171875 -0.203125 C 1.335938 -0.203125 1.46875 -0.269531 1.5625 -0.40625 C 1.65625 -0.539062 1.703125 -0.726562 1.703125 -0.96875 C 1.703125 -1.207031 1.65625 -1.390625 1.5625 -1.515625 C 1.46875 -1.640625 1.332031 -1.703125 1.15625 -1.703125 Z M 1.15625 -1.703125 "/></g></g><g style="fill:#000000;fill-opacity:1;"><g transform="translate(67.824352, 19.362549)"><path style="stroke:none" d="M 1.125 0.03125 C 0.832031 0.03125 0.601562 -0.0507812 0.4375 -0.21875 C 0.28125 -0.394531 0.203125 -0.640625 0.203125 -0.953125 C 0.203125 -1.253906 0.273438 -1.492188 0.421875 -1.671875 C 0.578125 -1.859375 0.785156 -1.953125 1.046875 -1.953125 C 1.285156 -1.953125 1.472656 -1.875 1.609375 -1.71875 C 1.753906 -1.5625 1.828125 -1.351562 1.828125 -1.09375 L 1.828125 -0.90625 L 0.5 -0.90625 C 0.507812 -0.675781 0.566406 -0.503906 0.671875 -0.390625 C 0.785156 -0.273438 0.9375 -0.21875 1.125 -0.21875 C 1.332031 -0.21875 1.539062 -0.257812 1.75 -0.34375 L 1.75 -0.09375 C 1.644531 -0.0390625 1.546875 -0.0078125 1.453125 0 C 1.359375 0.0195312 1.25 0.03125 1.125 0.03125 Z M 1.046875 -1.71875 C 0.890625 -1.71875 0.765625 -1.664062 0.671875 -1.5625 C 0.578125 -1.457031 0.523438 -1.316406 0.515625 -1.140625 L 1.515625 -1.140625 C 1.515625 -1.328125 1.472656 -1.46875 1.390625 -1.5625 C 1.304688 -1.664062 1.191406 -1.71875 1.046875 -1.71875 Z M 1.046875 -1.71875 "/></g></g><g style="fill:#000000;fill-opacity:1;"><g transform="translate(70.632578, 19.362549)"><path style="stroke:none" d="M 1.1875 -1.953125 C 1.269531 -1.953125 1.347656 -1.945312 1.421875 -1.9375 L 1.375 -1.671875 C 1.289062 -1.679688 1.222656 -1.6875 1.171875 -1.6875 C 1.015625 -1.6875 0.878906 -1.625 0.765625 -1.5 C 0.648438 -1.375 0.59375 -1.21875 0.59375 -1.03125 L 0.59375 0 L 0.3125 0 L 0.3125 -1.921875 L 0.546875 -1.921875 L 0.578125 -1.5625 L 0.59375 -1.5625 C 0.664062 -1.6875 0.75 -1.78125 0.84375 -1.84375 C 0.945312 -1.914062 1.0625 -1.953125 1.1875 -1.953125 Z M 1.1875 -1.953125 "/></g></g></g></svg>